<svg width="16" height="16" viewBox="0 0 16 16" fill="none" xmlns="http://www.w3.org/2000/svg">
<path d="M10 14V8.66667C10 8.48986 9.92976 8.32029 9.80474 8.19526C9.67971 8.07024 9.51014 8 9.33333 8H6.66667C6.48986 8 6.32029 8.07024 6.19526 8.19526C6.07024 8.32029 6 8.48986 6 8.66667V14" stroke="black" stroke-width="1.33333" stroke-linecap="round" stroke-linejoin="round"/>
<path d="M2 6.66764C1.99995 6.47368 2.04222 6.28205 2.12386 6.10612C2.20549 5.93018 2.32453 5.77417 2.47267 5.64897L7.13933 1.64897C7.37999 1.44558 7.6849 1.33398 8 1.33398C8.3151 1.33398 8.62001 1.44558 8.86067 1.64897L13.5273 5.64897C13.6755 5.77417 13.7945 5.93018 13.8761 6.10612C13.9578 6.28205 14 6.47368 14 6.66764V12.6676C14 13.0213 13.8595 13.3604 13.6095 13.6104C13.3594 13.8605 13.0203 14.001 12.6667 14.001H3.33333C2.97971 14.001 2.64057 13.8605 2.39052 13.6104C2.14048 13.3604 2 13.0213 2 12.6676V6.66764Z" stroke="black" stroke-width="1.33333" stroke-linecap="round" stroke-linejoin="round"/>
</svg>
