<svg width="155" height="31" viewBox="0 0 155 31" fill="none" xmlns="http://www.w3.org/2000/svg">
<rect x="69" width="86" height="24" rx="4" fill="url(#paint0_linear_40_451)"/>
<path d="M74.0163 19V17.2166L78.5675 11.6747V11.6108H74.1761V9.18182H82.294V11.1378L78.0753 16.5071V16.571H82.4474V19H74.0163ZM87.2862 16.424L87.299 12.6974H87.7337L90.495 9.18182H94.0362L89.9325 14.2188H89.108L87.2862 16.424ZM84.4673 19V5.90909H87.593V19H84.4673ZM90.5653 19L87.9957 14.9219L90.054 12.7038L94.1768 19H90.5653ZM98.2933 19L94.4837 5.90909H97.9801L99.9553 14.4872H100.064L102.32 5.90909H105.171L107.428 14.5064H107.536L109.518 5.90909H113.008L109.205 19H106.156L103.797 11.0611H103.695L101.336 19H98.2933ZM115.993 19.1662C115.366 19.1662 114.81 19.0618 114.325 18.853C113.843 18.6399 113.462 18.3203 113.18 17.8942C112.903 17.4638 112.765 16.9247 112.765 16.277C112.765 15.7315 112.861 15.2713 113.053 14.8963C113.244 14.5213 113.509 14.2166 113.845 13.9822C114.182 13.7479 114.57 13.571 115.009 13.4517C115.447 13.3281 115.916 13.245 116.415 13.2024C116.973 13.1513 117.423 13.098 117.763 13.0426C118.104 12.983 118.352 12.8999 118.505 12.7933C118.663 12.6825 118.741 12.527 118.741 12.3267V12.2947C118.741 11.9666 118.629 11.7131 118.403 11.5341C118.177 11.3551 117.872 11.2656 117.489 11.2656C117.075 11.2656 116.743 11.3551 116.491 11.5341C116.24 11.7131 116.08 11.9602 116.012 12.2756L113.129 12.1733C113.214 11.5767 113.434 11.044 113.788 10.5753C114.146 10.1023 114.636 9.73153 115.258 9.46307C115.884 9.19034 116.636 9.05398 117.514 9.05398C118.141 9.05398 118.718 9.12855 119.246 9.2777C119.775 9.42258 120.235 9.63565 120.627 9.9169C121.019 10.1939 121.322 10.5348 121.535 10.9396C121.752 11.3445 121.861 11.8068 121.861 12.3267V19H118.92V17.6321H118.844C118.669 17.9645 118.445 18.2457 118.173 18.4759C117.904 18.706 117.587 18.8786 117.22 18.9936C116.858 19.1087 116.449 19.1662 115.993 19.1662ZM116.958 17.1207C117.295 17.1207 117.597 17.0526 117.866 16.9162C118.138 16.7798 118.356 16.5923 118.518 16.3537C118.68 16.1108 118.761 15.8295 118.761 15.5099V14.5767C118.671 14.6236 118.563 14.6662 118.435 14.7045C118.311 14.7429 118.175 14.7791 118.026 14.8132C117.876 14.8473 117.723 14.8771 117.565 14.9027C117.408 14.9283 117.256 14.9517 117.112 14.973C116.817 15.0199 116.566 15.0923 116.357 15.1903C116.153 15.2884 115.995 15.4162 115.884 15.5739C115.778 15.7273 115.724 15.9105 115.724 16.1236C115.724 16.4474 115.839 16.6946 116.07 16.8651C116.304 17.0355 116.6 17.1207 116.958 17.1207ZM126.898 5.90909V19H123.772V5.90909H126.898ZM132.013 5.90909V19H128.887V5.90909H132.013ZM138.592 19.1854C137.565 19.1854 136.679 18.983 135.933 18.5781C135.191 18.169 134.62 17.5874 134.22 16.8331C133.824 16.0746 133.625 15.1733 133.625 14.1293C133.625 13.1151 133.826 12.2287 134.226 11.4702C134.627 10.7074 135.191 10.1151 135.92 9.69318C136.649 9.26705 137.507 9.05398 138.496 9.05398C139.195 9.05398 139.834 9.16264 140.414 9.37997C140.993 9.5973 141.494 9.91903 141.916 10.3452C142.338 10.7713 142.666 11.2976 142.9 11.924C143.135 12.5462 143.252 13.2599 143.252 14.0653V14.8452H134.718V13.0298H140.343C140.339 12.6974 140.26 12.4013 140.107 12.1413C139.953 11.8814 139.743 11.679 139.474 11.5341C139.21 11.3849 138.905 11.3104 138.56 11.3104C138.211 11.3104 137.897 11.3892 137.62 11.5469C137.343 11.7003 137.124 11.9112 136.962 12.1797C136.8 12.4439 136.715 12.7443 136.706 13.081V14.9283C136.706 15.3288 136.785 15.6804 136.943 15.983C137.1 16.2812 137.324 16.5135 137.614 16.6797C137.904 16.8459 138.249 16.929 138.65 16.929C138.926 16.929 139.178 16.8906 139.404 16.8139C139.63 16.7372 139.824 16.6243 139.985 16.4751C140.147 16.326 140.269 16.1428 140.35 15.9254L143.22 16.0085C143.1 16.652 142.838 17.2124 142.434 17.6896C142.033 18.1626 141.507 18.5312 140.855 18.7955C140.203 19.0554 139.449 19.1854 138.592 19.1854ZM150.39 9.18182V11.483H144.196V9.18182H150.39ZM145.494 6.82955H148.619V15.9126C148.619 16.1044 148.649 16.2599 148.709 16.3793C148.773 16.4943 148.865 16.5774 148.984 16.6286C149.103 16.6754 149.246 16.6989 149.412 16.6989C149.531 16.6989 149.657 16.6882 149.789 16.6669C149.926 16.6413 150.028 16.62 150.096 16.603L150.569 18.8594C150.42 18.902 150.209 18.9553 149.936 19.0192C149.668 19.0831 149.346 19.1236 148.971 19.1406C148.238 19.1747 147.61 19.0895 147.085 18.8849C146.566 18.6761 146.167 18.3523 145.89 17.9134C145.617 17.4744 145.485 16.9226 145.494 16.2578V6.82955Z" fill="white"/>
<g clip-path="url(#clip0_40_451)">
<mask id="mask0_40_451" style="mask-type:luminance" maskUnits="userSpaceOnUse" x="0" y="9" width="66" height="22">
<path d="M65.1538 9H0V31H65.1538V9Z" fill="white"/>
</mask>
<g mask="url(#mask0_40_451)">
<path d="M35.5464 23.1296C35.5464 18.6049 38.8846 15.2598 43.3129 15.2598C47.7413 15.2598 51.0483 18.6311 51.0483 23.1296C51.0483 27.6282 47.7361 30.9995 43.2818 30.9995C38.8274 30.9995 35.5464 27.6859 35.5464 23.1296ZM48.7381 23.1296C48.7381 19.816 46.485 17.336 43.287 17.336C40.089 17.336 37.8618 19.8422 37.8618 23.1296C37.8618 26.417 40.1149 28.9232 43.287 28.9232C46.459 28.9232 48.7381 26.4747 48.7381 23.1296Z" fill="#2C2B2F"/>
<path d="M2.79824 26.0977V17.562H0V15.6325H2.22717C2.62692 15.6325 2.9436 15.3703 2.9436 14.8828V11.2807H5.05656V15.6325H9.62512V17.562H5.05656V26.0663C5.05656 27.6811 5.65878 28.6301 7.3668 28.6301H9.42265V30.6173H7.22662C4.48549 30.6173 2.80343 29.1177 2.80343 26.0925L2.79824 26.0977ZM11.9042 23.1301C11.9042 18.3432 15.1282 15.2603 19.1827 15.2603C23.6942 15.2603 26.3782 18.6053 26.3782 22.9309V23.9376H14.2715C14.3858 26.9366 16.2962 28.9237 19.3541 28.9237C21.3217 28.9237 23.2062 27.9747 23.8915 26.2131H26.2329C25.4074 29.0076 22.8064 31 19.3229 31C14.7855 31 11.899 27.6287 11.899 23.1301H11.9042ZM23.9849 21.919C23.7824 18.9199 21.7006 17.3365 19.1879 17.3365C16.6752 17.3365 14.5623 19.1506 14.3338 21.919H23.9849ZM29.5243 27.4242V9H31.7774V27.4242C31.7774 28.174 32.146 28.6039 32.8625 28.6039H33.5477V30.6225H32.4627C30.6041 30.6225 29.5191 29.469 29.5191 27.4242H29.5243ZM53.6234 26.2707H55.8246C56.079 28.0586 57.3354 29.0076 59.5054 29.0076C61.6755 29.0076 62.9578 27.9118 62.9578 26.3861C62.9578 22.1759 54.0803 25.3794 54.0803 19.439C54.0803 16.9013 56.3334 15.2603 59.4483 15.2603C62.1895 15.2603 64.4737 16.8751 64.7022 19.5858H62.5321C62.3348 18.1702 61.2758 17.2212 59.3082 17.2212C57.4496 17.2212 56.2555 18.144 56.2555 19.439C56.2555 23.2455 65.1642 20.0734 65.1642 26.2707C65.1642 29.0968 62.8488 31 59.3964 31C55.944 31 53.8882 29.0705 53.6286 26.2707H53.6234Z" fill="#2C2B2F"/>
</g>
</g>
<defs>
<linearGradient id="paint0_linear_40_451" x1="108.091" y1="-0.672896" x2="112.83" y2="25.8737" gradientUnits="userSpaceOnUse">
<stop stop-color="#FFA1E5"/>
<stop offset="1" stop-color="#6F9AE3"/>
</linearGradient>
<clipPath id="clip0_40_451">
<rect width="66" height="22" fill="white" transform="translate(0 9)"/>
</clipPath>
</defs>
</svg>
