<svg width="135" height="31" viewBox="0 0 135 31" fill="none" xmlns="http://www.w3.org/2000/svg">
<rect x="69" width="66" height="24" rx="4" fill="url(#paint0_linear_55_2170)"/>
<path d="M76.8253 18L74.2685 8.18182H77.407L78.7301 14.4716H78.8132L80.2322 8.18182H83.294L84.7514 14.4268H84.8345L86.1193 8.18182H89.2578L86.6946 18H83.3516L81.8175 12.2791H81.7088L80.1747 18H76.8253ZM93.28 18.1662C92.6536 18.1662 92.0975 18.0618 91.6117 17.853C91.1301 17.6399 90.7488 17.3203 90.4675 16.8942C90.1905 16.4638 90.052 15.9247 90.052 15.277C90.052 14.7315 90.1479 14.2713 90.3397 13.8963C90.5314 13.5213 90.7956 13.2166 91.1323 12.9822C91.4689 12.7479 91.8567 12.571 92.2956 12.4517C92.7346 12.3281 93.2033 12.245 93.7019 12.2024C94.2601 12.1513 94.7097 12.098 95.0506 12.0426C95.3915 11.983 95.6387 11.8999 95.7921 11.7933C95.9498 11.6825 96.0286 11.527 96.0286 11.3267V11.2947C96.0286 10.9666 95.9157 10.7131 95.6898 10.5341C95.464 10.3551 95.1593 10.2656 94.7757 10.2656C94.3624 10.2656 94.03 10.3551 93.7786 10.5341C93.5272 10.7131 93.3674 10.9602 93.2992 11.2756L90.4164 11.1733C90.5016 10.5767 90.7211 10.044 91.0748 9.57528C91.4327 9.10227 91.9228 8.73153 92.5449 8.46307C93.1713 8.19034 93.9235 8.05398 94.8013 8.05398C95.4277 8.05398 96.0051 8.12855 96.5336 8.2777C97.062 8.42258 97.5222 8.63565 97.9142 8.9169C98.3063 9.19389 98.6088 9.5348 98.8219 9.93963C99.0392 10.3445 99.1479 10.8068 99.1479 11.3267V18H96.2076V16.6321H96.1309C95.9561 16.9645 95.7324 17.2457 95.4597 17.4759C95.1912 17.706 94.8738 17.8786 94.5073 17.9936C94.1451 18.1087 93.736 18.1662 93.28 18.1662ZM94.2452 16.1207C94.5819 16.1207 94.8844 16.0526 95.1529 15.9162C95.4256 15.7798 95.6429 15.5923 95.8049 15.3537C95.9668 15.1108 96.0478 14.8295 96.0478 14.5099V13.5767C95.9583 13.6236 95.8496 13.6662 95.7218 13.7045C95.5982 13.7429 95.4618 13.7791 95.3127 13.8132C95.1635 13.8473 95.0101 13.8771 94.8525 13.9027C94.6948 13.9283 94.5435 13.9517 94.3986 13.973C94.1046 14.0199 93.8532 14.0923 93.6444 14.1903C93.4398 14.2884 93.2821 14.4162 93.1713 14.5739C93.0648 14.7273 93.0115 14.9105 93.0115 15.1236C93.0115 15.4474 93.1266 15.6946 93.3567 15.8651C93.5911 16.0355 93.8873 16.1207 94.2452 16.1207ZM104.185 4.90909V18H101.059V4.90909H104.185ZM109.3 4.90909V18H106.174V4.90909H109.3ZM115.879 18.1854C114.852 18.1854 113.966 17.983 113.22 17.5781C112.479 17.169 111.907 16.5874 111.507 15.8331C111.111 15.0746 110.912 14.1733 110.912 13.1293C110.912 12.1151 111.113 11.2287 111.513 10.4702C111.914 9.70739 112.479 9.11506 113.207 8.69318C113.936 8.26705 114.795 8.05398 115.783 8.05398C116.482 8.05398 117.121 8.16264 117.701 8.37997C118.28 8.5973 118.781 8.91903 119.203 9.34517C119.625 9.77131 119.953 10.2976 120.187 10.924C120.422 11.5462 120.539 12.2599 120.539 13.0653V13.8452H112.006V12.0298H117.631C117.626 11.6974 117.547 11.4013 117.394 11.1413C117.241 10.8814 117.03 10.679 116.761 10.5341C116.497 10.3849 116.192 10.3104 115.847 10.3104C115.498 10.3104 115.184 10.3892 114.907 10.5469C114.631 10.7003 114.411 10.9112 114.249 11.1797C114.087 11.4439 114.002 11.7443 113.993 12.081V13.9283C113.993 14.3288 114.072 14.6804 114.23 14.983C114.388 15.2812 114.611 15.5135 114.901 15.6797C115.191 15.8459 115.536 15.929 115.937 15.929C116.214 15.929 116.465 15.8906 116.691 15.8139C116.917 15.7372 117.111 15.6243 117.273 15.4751C117.434 15.326 117.556 15.1428 117.637 14.9254L120.507 15.0085C120.388 15.652 120.126 16.2124 119.721 16.6896C119.32 17.1626 118.794 17.5312 118.142 17.7955C117.49 18.0554 116.736 18.1854 115.879 18.1854ZM127.677 8.18182V10.483H121.483V8.18182H127.677ZM122.781 5.82955H125.907V14.9126C125.907 15.1044 125.936 15.2599 125.996 15.3793C126.06 15.4943 126.152 15.5774 126.271 15.6286C126.39 15.6754 126.533 15.6989 126.699 15.6989C126.819 15.6989 126.944 15.6882 127.076 15.6669C127.213 15.6413 127.315 15.62 127.383 15.603L127.856 17.8594C127.707 17.902 127.496 17.9553 127.223 18.0192C126.955 18.0831 126.633 18.1236 126.258 18.1406C125.525 18.1747 124.897 18.0895 124.373 17.8849C123.853 17.6761 123.454 17.3523 123.177 16.9134C122.904 16.4744 122.772 15.9226 122.781 15.2578V5.82955Z" fill="white"/>
<g clip-path="url(#clip0_55_2170)">
<mask id="mask0_55_2170" style="mask-type:luminance" maskUnits="userSpaceOnUse" x="0" y="9" width="66" height="22">
<path d="M65.1538 9H0V31H65.1538V9Z" fill="white"/>
</mask>
<g mask="url(#mask0_55_2170)">
<path d="M35.5464 23.1296C35.5464 18.6049 38.8846 15.2598 43.3129 15.2598C47.7413 15.2598 51.0483 18.6311 51.0483 23.1296C51.0483 27.6282 47.7361 30.9995 43.2818 30.9995C38.8274 30.9995 35.5464 27.6859 35.5464 23.1296ZM48.7381 23.1296C48.7381 19.816 46.485 17.336 43.287 17.336C40.089 17.336 37.8618 19.8422 37.8618 23.1296C37.8618 26.417 40.1149 28.9232 43.287 28.9232C46.459 28.9232 48.7381 26.4747 48.7381 23.1296Z" fill="#2C2B2F"/>
<path d="M2.79824 26.0977V17.562H0V15.6325H2.22717C2.62692 15.6325 2.9436 15.3703 2.9436 14.8828V11.2807H5.05656V15.6325H9.62512V17.562H5.05656V26.0663C5.05656 27.6811 5.65878 28.6301 7.3668 28.6301H9.42265V30.6173H7.22662C4.48549 30.6173 2.80343 29.1177 2.80343 26.0925L2.79824 26.0977ZM11.9042 23.1301C11.9042 18.3432 15.1282 15.2603 19.1827 15.2603C23.6942 15.2603 26.3782 18.6053 26.3782 22.9309V23.9376H14.2715C14.3858 26.9366 16.2962 28.9237 19.3541 28.9237C21.3217 28.9237 23.2062 27.9747 23.8915 26.2131H26.2329C25.4074 29.0076 22.8064 31 19.3229 31C14.7855 31 11.899 27.6287 11.899 23.1301H11.9042ZM23.9849 21.919C23.7824 18.9199 21.7006 17.3365 19.1879 17.3365C16.6752 17.3365 14.5623 19.1506 14.3338 21.919H23.9849ZM29.5243 27.4242V9H31.7774V27.4242C31.7774 28.174 32.146 28.6039 32.8625 28.6039H33.5477V30.6225H32.4627C30.6041 30.6225 29.5191 29.469 29.5191 27.4242H29.5243ZM53.6234 26.2707H55.8246C56.079 28.0586 57.3354 29.0076 59.5054 29.0076C61.6755 29.0076 62.9578 27.9118 62.9578 26.3861C62.9578 22.1759 54.0803 25.3794 54.0803 19.439C54.0803 16.9013 56.3334 15.2603 59.4483 15.2603C62.1895 15.2603 64.4737 16.8751 64.7022 19.5858H62.5321C62.3348 18.1702 61.2758 17.2212 59.3082 17.2212C57.4496 17.2212 56.2555 18.144 56.2555 19.439C56.2555 23.2455 65.1642 20.0734 65.1642 26.2707C65.1642 29.0968 62.8488 31 59.3964 31C55.944 31 53.8882 29.0705 53.6286 26.2707H53.6234Z" fill="#2C2B2F"/>
</g>
</g>
<defs>
<linearGradient id="paint0_linear_55_2170" x1="99" y1="-0.672896" x2="105.045" y2="25.3135" gradientUnits="userSpaceOnUse">
<stop stop-color="#FFA1E5"/>
<stop offset="1" stop-color="#6F9AE3"/>
</linearGradient>
<clipPath id="clip0_55_2170">
<rect width="66" height="22" fill="white" transform="translate(0 9)"/>
</clipPath>
</defs>
</svg>
