<svg width="24" height="24" viewBox="0 0 24 24" fill="none" xmlns="http://www.w3.org/2000/svg">
<g clip-path="url(#clip0_20_2)">
<path d="M12 24C18.6274 24 24 18.6274 24 12C24 5.37258 18.6274 0 12 0C5.37258 0 0 5.37258 0 12C0 18.6274 5.37258 24 12 24Z" fill="#808080"/>
<path d="M10.4961 14.8168V14.6818C10.5056 13.8011 10.5932 13.1004 10.7589 12.5795C10.9293 12.0587 11.1708 11.6373 11.4833 11.3153C11.7958 10.9934 12.1722 10.6998 12.6126 10.4347C12.8967 10.2547 13.1523 10.0535 13.3796 9.83097C13.6069 9.60843 13.7868 9.35275 13.9194 9.06392C14.052 8.7751 14.1183 8.45549 14.1183 8.10512C14.1183 7.68371 14.0188 7.31913 13.82 7.01137C13.6211 6.7036 13.3559 6.46686 13.0245 6.30114C12.6978 6.13068 12.3332 6.04546 11.9308 6.04546C11.5662 6.04546 11.2182 6.12121 10.8867 6.27273C10.5553 6.42425 10.2807 6.66099 10.0629 6.98296C9.84505 7.30019 9.71958 7.70976 9.68643 8.21165H7.52734C7.56049 7.35938 7.77592 6.63968 8.17365 6.05256C8.57138 5.4607 9.09695 5.01326 9.75036 4.71023C10.4085 4.4072 11.1353 4.25568 11.9308 4.25568C12.802 4.25568 13.5643 4.41904 14.2177 4.74574C14.8711 5.06771 15.3777 5.51989 15.7376 6.10228C16.1022 6.67993 16.2844 7.35464 16.2844 8.12642C16.2844 8.65673 16.2016 9.13495 16.0359 9.56108C15.8701 9.98248 15.6334 10.3589 15.3256 10.6903C15.0226 11.0218 14.658 11.3153 14.2319 11.571C13.8294 11.822 13.5027 12.0824 13.2518 12.3523C13.0056 12.6222 12.8256 12.9418 12.712 13.3111C12.5984 13.6804 12.5368 14.1373 12.5273 14.6818V14.8168H10.4961ZM11.5685 19.1349C11.1803 19.1349 10.8465 18.9976 10.5671 18.723C10.2878 18.4437 10.1481 18.1075 10.1481 17.7145C10.1481 17.3262 10.2878 16.9948 10.5671 16.7202C10.8465 16.4408 11.1803 16.3011 11.5685 16.3011C11.9521 16.3011 12.2835 16.4408 12.5629 16.7202C12.8469 16.9948 12.989 17.3262 12.989 17.7145C12.989 17.9749 12.9227 18.214 12.7901 18.4318C12.6623 18.6449 12.4918 18.8153 12.2788 18.9432C12.0657 19.071 11.829 19.1349 11.5685 19.1349Z" fill="white"/>
</g>
<defs>
<clipPath id="clip0_20_2">
<rect width="24" height="24" fill="white"/>
</clipPath>
</defs>
</svg>
